<svg width="40" height="40" viewBox="0 0 40 40" fill="none" xmlns="http://www.w3.org/2000/svg">
<path d="M38.3333 6.66663C38.3333 3.90521 36.0948 1.66663 33.3333 1.66663H26.6667C25.7462 1.66663 25 2.41283 25 3.33329C25 4.25376 25.7462 4.99996 26.6667 4.99996H33.3333C34.2538 4.99996 35 5.74616 35 6.66663V13.3333C35 14.2538 35.7462 15 36.6667 15C37.5872 15 38.3333 14.2538 38.3333 13.3333V6.66663Z" fill="#6750A4"/>
<path d="M38.3333 26.6667C38.3333 25.7462 37.5872 25 36.6667 25C35.7462 25 35 25.7462 35 26.6667V33.3333C35 34.2538 34.2538 35 33.3333 35H26.6667C25.7462 35 25 35.7462 25 36.6667C25 37.5872 25.7462 38.3333 26.6667 38.3333H33.3333C36.0948 38.3333 38.3333 36.0948 38.3333 33.3333V26.6667Z" fill="#6750A4"/>
<path d="M6.66667 35C5.7462 35 5 34.2538 5 33.3333V26.6667C5 25.7462 4.2538 25 3.33333 25C2.41287 25 1.66667 25.7462 1.66667 26.6667V33.3333C1.66667 36.0948 3.90525 38.3333 6.66667 38.3333H13.3333C14.2538 38.3333 15 37.5872 15 36.6667C15 35.7462 14.2538 35 13.3333 35H6.66667Z" fill="#6750A4"/>
<path d="M1.66667 13.3333C1.66667 14.2538 2.41287 15 3.33333 15C4.2538 15 5 14.2538 5 13.3333V6.66663C5 5.74616 5.7462 4.99996 6.66667 4.99996H13.3333C14.2538 4.99996 15 4.25376 15 3.33329C15 2.41283 14.2538 1.66663 13.3333 1.66663H6.66667C3.90525 1.66663 1.66667 3.90521 1.66667 6.66663V13.3333Z" fill="#6750A4"/>
<path fill-rule="evenodd" clip-rule="evenodd" d="M18.3333 9.99992C18.3333 9.07945 17.5872 8.33325 16.6667 8.33325H10C9.07954 8.33325 8.33334 9.07945 8.33334 9.99992V16.6666C8.33334 17.5871 9.07954 18.3333 10 18.3333H16.6667C17.5872 18.3333 18.3333 17.5871 18.3333 16.6666V9.99992ZM15 12.4999C15 12.0397 14.6269 11.6666 14.1667 11.6666H12.5C12.0398 11.6666 11.6667 12.0397 11.6667 12.4999V14.1666C11.6667 14.6268 12.0398 14.9999 12.5 14.9999H14.1667C14.6269 14.9999 15 14.6268 15 14.1666V12.4999Z" fill="#6750A4"/>
<path fill-rule="evenodd" clip-rule="evenodd" d="M30 21.6666C30.9205 21.6666 31.6667 22.4128 31.6667 23.3333V30C31.6667 30.9205 30.9205 31.6666 30 31.6666H23.3333C22.4128 31.6666 21.6667 30.9205 21.6667 30V23.3333C21.6667 22.4128 22.4128 21.6666 23.3333 21.6666H30ZM25 25.8333C25 25.3731 25.3732 25 25.8333 25H27.5C27.9602 25 28.3333 25.3731 28.3333 25.8333V27.5C28.3333 27.9601 27.9602 28.3333 27.5 28.3333H25.8333C25.3732 28.3333 25 27.9601 25 27.5V25.8333Z" fill="#6750A4"/>
<path d="M23.3333 8.33325C22.4128 8.33325 21.6667 9.07945 21.6667 9.99992C21.6667 10.9204 22.4128 11.6666 23.3333 11.6666H27.5C27.9602 11.6666 28.3333 12.0397 28.3333 12.4999V16.6666C28.3333 17.5871 29.0795 18.3333 30 18.3333C30.9205 18.3333 31.6667 17.5871 31.6667 16.6666V9.99992C31.6667 9.07945 30.9205 8.33325 30 8.33325H23.3333Z" fill="#6750A4"/>
<path d="M23.3333 13.3333C22.4128 13.3333 21.6667 14.0794 21.6667 14.9999V16.6666C21.6667 17.5871 22.4128 18.3333 23.3333 18.3333C24.2538 18.3333 25 17.5871 25 16.6666V14.9999C25 14.0795 24.2538 13.3333 23.3333 13.3333Z" fill="#6750A4"/>
<path d="M10 21.6666C9.07954 21.6666 8.33334 22.4128 8.33334 23.3333V26.6666C8.33334 27.5871 9.07954 28.3333 10 28.3333C10.9205 28.3333 11.6667 27.5871 11.6667 26.6666V25.8333C11.6667 25.3731 12.0398 25 12.5 25H16.6667C17.5872 25 18.3333 24.2538 18.3333 23.3333C18.3333 22.4128 17.5872 21.6666 16.6667 21.6666H10Z" fill="#6750A4"/>
<path d="M16.6667 28.3333C15.7462 28.3333 15 29.0794 15 29.9999C15 30.9204 15.7462 31.6666 16.6667 31.6666C17.5872 31.6666 18.3333 30.9204 18.3333 29.9999C18.3333 29.0794 17.5872 28.3333 16.6667 28.3333Z" fill="#6750A4"/>
</svg>
