<svg width="30" height="30" viewBox="0 0 30 30" fill="none" xmlns="http://www.w3.org/2000/svg">
<path fill-rule="evenodd" clip-rule="evenodd" d="M18.75 13.125C18.75 16.2316 16.2316 18.75 13.125 18.75C10.0184 18.75 7.5 16.2316 7.5 13.125C7.5 10.0184 10.0184 7.5 13.125 7.5C16.2316 7.5 18.75 10.0184 18.75 13.125ZM17.7241 19.0499C16.454 20.0371 14.8581 20.625 13.125 20.625C8.98286 20.625 5.625 17.2671 5.625 13.125C5.625 8.98286 8.98286 5.625 13.125 5.625C17.2671 5.625 20.625 8.98286 20.625 13.125C20.625 14.8581 20.0371 16.454 19.0499 17.724L25.038 23.7121L23.7121 25.0379L17.7241 19.0499Z" fill="#080341"/>
</svg>
