<svg width="50" height="50" viewBox="0 0 50 50" fill="none" xmlns="http://www.w3.org/2000/svg">
<path fill-rule="evenodd" clip-rule="evenodd" d="M17.9828 10.3034L10.2972 17.989C9.71504 18.5713 9.388 19.361 9.388 20.1844C9.388 21.0078 9.71504 21.7975 10.2972 22.3799L17.9828 30.0655C18.2712 30.3542 18.6137 30.5832 18.9906 30.7395C19.3676 30.8958 19.7717 30.9762 20.1798 30.9762C20.5879 30.9762 20.992 30.8958 21.3689 30.7395C21.7459 30.5832 22.0884 30.3542 22.3768 30.0655L30.0593 22.3799C30.6414 21.7975 30.9685 21.0078 30.9685 20.1844C30.9685 19.361 30.6414 18.5713 30.0593 17.989L22.3768 10.3034C22.0884 10.0147 21.7459 9.78562 21.3689 9.62935C20.992 9.47307 20.5879 9.39264 20.1798 9.39264C19.7717 9.39264 19.3676 9.47307 18.9906 9.62935C18.6137 9.78562 18.2712 10.0147 17.9828 10.3034ZM20.1782 25.6746L14.6912 20.1844L20.1782 14.6943L25.6684 20.1844L20.1782 25.6746Z" fill="#6750A4"/>
<path fill-rule="evenodd" clip-rule="evenodd" d="M2.88416e-06 20.1844C-0.00243775 15.6172 1.54417 11.1841 4.38713 7.60954C7.23009 4.03499 11.2013 1.53029 15.6519 0.504693C20.1025 -0.520903 24.7694 -0.00675956 28.89 1.96312C33.0106 3.93299 36.3414 7.24213 38.338 11.3499C41.2282 12.7588 43.7401 14.8379 45.6643 17.414C47.5885 19.9901 48.8695 22.9886 49.4005 26.1599C49.9315 29.3312 49.6972 32.5834 48.717 35.6458C47.7369 38.7082 46.0394 41.4921 43.7657 43.7657C41.4921 46.0394 38.7082 47.7369 35.6458 48.717C32.5834 49.6972 29.3312 49.9315 26.1599 49.4005C22.9886 48.8695 19.9901 47.5885 17.414 45.6643C14.8379 43.7401 12.7588 41.2282 11.3499 38.338C7.94595 36.681 5.07667 34.1001 3.06971 30.89C1.06275 27.68 -0.000980582 23.9702 2.88416e-06 20.1844ZM20.1844 4.65795C16.0665 4.65795 12.1173 6.29377 9.20555 9.20554C6.29377 12.1173 4.65795 16.0665 4.65795 20.1844C4.65795 24.3023 6.29377 28.2515 9.20555 31.1633C12.1173 34.0751 16.0665 35.7109 20.1844 35.7109C24.3023 35.7109 28.2515 34.0751 31.1633 31.1633C34.0751 28.2515 35.7109 24.3023 35.7109 20.1844C35.7109 16.0665 34.0751 12.1173 31.1633 9.20554C28.2515 6.29377 24.3023 4.65795 20.1844 4.65795ZM40.3688 20.1844C40.3688 19.5603 40.3378 18.9423 40.285 18.3306C41.7679 19.7628 42.9508 21.4761 43.7645 23.3704C44.5782 25.2647 45.0065 27.3021 45.0245 29.3637C45.0424 31.4252 44.6495 33.4698 43.8688 35.3779C43.0882 37.2861 41.9353 39.0196 40.4774 40.4774C39.0196 41.9353 37.2861 43.0882 35.3779 43.8688C33.4698 44.6495 31.4252 45.0424 29.3637 45.0245C27.3021 45.0065 25.2647 44.5782 23.3704 43.7645C21.4761 42.9508 19.7628 41.7679 18.3306 40.285C21.1258 40.5428 23.944 40.2148 26.6053 39.3218C29.2666 38.4288 31.7123 36.9906 33.7863 35.099C35.8603 33.2074 37.5169 30.9039 38.6503 28.3358C39.7837 25.7678 40.369 22.9915 40.3688 20.1844Z" fill="#6750A4"/>
</svg>
